<?xml version="1.0" encoding="UTF-8" standalone="no"?>
<svg
   xmlns:dc="http://purl.org/dc/elements/1.1/"
   xmlns:cc="http://creativecommons.org/ns#"
   xmlns:rdf="http://www.w3.org/1999/02/22-rdf-syntax-ns#"
   xmlns:svg="http://www.w3.org/2000/svg"
   xmlns="http://www.w3.org/2000/svg"
   xmlns:sodipodi="http://sodipodi.sourceforge.net/DTD/sodipodi-0.dtd"
   xmlns:inkscape="http://www.inkscape.org/namespaces/inkscape"
   version="1.1"
   x="0px"
   y="0px"
   width="68"
   height="136"
   viewBox="0 0 68 136"
   enable-background="new 0 0 100 100"
   xml:space="preserve"
   id="svg4481"
   inkscape:version="0.48.4 r9939"
   sodipodi:docname="arrow_not_filled.svg"
   inkscape:export-filename="C:\Users\Miguel\Desktop\Icons\Arrow2\arrow.png"
   inkscape:export-xdpi="551.91174"
   inkscape:export-ydpi="551.91174"><metadata
   id="metadata4493"><rdf:RDF><cc:Work
       rdf:about=""><dc:format>image/svg+xml</dc:format><dc:type
         rdf:resource="http://purl.org/dc/dcmitype/StillImage" /><dc:title></dc:title></cc:Work></rdf:RDF></metadata><defs
   id="defs4491" /><sodipodi:namedview
   pagecolor="#ffffff"
   bordercolor="#666666"
   borderopacity="1"
   objecttolerance="10"
   gridtolerance="10"
   guidetolerance="10"
   inkscape:pageopacity="0"
   inkscape:pageshadow="2"
   inkscape:window-width="1366"
   inkscape:window-height="706"
   id="namedview4489"
   showgrid="false"
   inkscape:zoom="4"
   inkscape:cx="6.7324045"
   inkscape:cy="73.025656"
   inkscape:window-x="-8"
   inkscape:window-y="-8"
   inkscape:window-maximized="1"
   inkscape:current-layer="g3044"
   fit-margin-top="0"
   fit-margin-left="0"
   fit-margin-right="0"
   fit-margin-bottom="0" />
<g
   inkscape:groupmode="layer"
   id="layer1"
   inkscape:label="background"><rect
     style="fill:#3498db;fill-opacity:1;stroke:#5c0000;stroke-opacity:0"
     id="rect5419"
     width="57"
     height="55.25"
     x="5.75"
     y="6"
     ry="18"
     rx="27" /></g><g
   id="Captions"
   transform="translate(-16,100)">
</g>
<g
   id="Your_Icon"
   transform="translate(-16,52)">
	<path
   d="m 52.399,30.593 c -0.069,-0.069 -0.138,-0.132 -0.206,-0.189 -0.037,-0.031 -0.077,-0.06 -0.115,-0.09 -0.02,-0.015 -0.037,-0.028 -0.057,-0.043 -0.565,-0.42 -1.263,-0.67 -2.021,-0.671 -0.757,10e-4 -1.454,0.251 -2.019,0.67 -0.026,0.018 -0.052,0.037 -0.077,0.057 -0.03,0.025 -0.062,0.048 -0.093,0.075 -0.072,0.059 -0.144,0.122 -0.216,0.194 L 32.492,45.7 c -1.327,1.327 -1.327,3.479 0,4.808 1.328,1.328 3.48,1.328 4.808,0 L 46.6,41.209 46.601,67 c 0,1.879 1.522,3.4 3.399,3.4 1.877,0 3.399,-1.521 3.399,-3.4 V 41.209 l 9.299,9.299 c 1.329,1.328 3.481,1.328 4.81,0 1.329,-1.328 1.328,-3.48 0,-4.808 L 52.406,30.598 c -0.002,-10e-4 -0.004,-0.004 -0.007,-0.005 z"
   id="path4485"
   style="fill:#3498db;fill-opacity:1;stroke:#3498db;stroke-opacity:1"
   inkscape:connector-curvature="0" />
	<path
   d="M 50,84 C 68.777,84 84,68.777 84,50 84,31.223 68.777,16 50,16 31.223,16 16,31.223 16,50 16,68.777 31.223,84 50,84 z M 50,22.8 C 65.021,22.8 77.2,34.979 77.2,50 77.2,65.021 65.021,77.2 50,77.2 34.979,77.2 22.8,65.021 22.8,50 22.8,34.979 34.979,22.8 50,22.8 z"
   id="path4487"
   style="fill:#3498db;fill-opacity:1"
   inkscape:connector-curvature="0" />
</g>
<g
   transform="translate(-16,100)"
   id="g3042">
</g><g
   id="g3044"
   transform="translate(-16,-16)">
	<path
   inkscape:connector-curvature="0"
   style="fill:#ffffff;fill-opacity:1;stroke:#ffffff;stroke-opacity:1"
   id="path3046"
   d="m 52.399,30.593 c -0.069,-0.069 -0.138,-0.132 -0.206,-0.189 -0.037,-0.031 -0.077,-0.06 -0.115,-0.09 -0.02,-0.015 -0.037,-0.028 -0.057,-0.043 -0.565,-0.42 -1.263,-0.67 -2.021,-0.671 -0.757,10e-4 -1.454,0.251 -2.019,0.67 -0.026,0.018 -0.052,0.037 -0.077,0.057 -0.03,0.025 -0.062,0.048 -0.093,0.075 -0.072,0.059 -0.144,0.122 -0.216,0.194 L 32.492,45.7 c -1.327,1.327 -1.327,3.479 0,4.808 1.328,1.328 3.48,1.328 4.808,0 L 46.6,41.209 46.601,67 c 0,1.879 1.522,3.4 3.399,3.4 1.877,0 3.399,-1.521 3.399,-3.4 V 41.209 l 9.299,9.299 c 1.329,1.328 3.481,1.328 4.81,0 1.329,-1.328 1.328,-3.48 0,-4.808 L 52.406,30.598 c -0.002,-10e-4 -0.004,-0.004 -0.007,-0.005 z" />
	<path
   inkscape:connector-curvature="0"
   style="fill:#3498db;fill-opacity:1"
   id="path3048"
   d="M 50,84 C 68.777,84 84,68.777 84,50 84,31.223 68.777,16 50,16 31.223,16 16,31.223 16,50 16,68.777 31.223,84 50,84 z M 50,22.8 C 65.021,22.8 77.2,34.979 77.2,50 77.2,65.021 65.021,77.2 50,77.2 34.979,77.2 22.8,65.021 22.8,50 22.8,34.979 34.979,22.8 50,22.8 z" />
</g></svg>