<svg xmlns="http://www.w3.org/2000/svg" xmlns:xlink="http://www.w3.org/1999/xlink" version="1.1" id="Your_Icon" x="0px" y="0px" width="100px" height="100px" viewBox="0 0 100 100" enable-background="new 0 0 100 100" xml:space="preserve">
<g>
	<path d="M85.229,95H14.771c-2.209,0-4-1.805-4-4.031V67.905c0-2.226,1.791-4.031,4-4.031s4,1.805,4,4.031v19.032h62.457V67.905   c0-2.226,1.791-4.031,4-4.031s4,1.805,4,4.031v23.063C89.229,93.195,87.438,95,85.229,95z"/>
</g>
<g>
	<g>
		<path d="M69.815,46.966L52.825,64.08c-0.45,0.453-1.01,0.806-1.64,0.998c-0.13,0.04-0.26,0.071-0.39,0.101    c-0.25,0.05-0.52,0.081-0.8,0.081c-0.67,0-1.3-0.161-1.85-0.464c-0.12-0.06-0.23-0.131-0.34-0.202    c-0.11-0.07-0.22-0.151-0.33-0.242c-0.11-0.081-0.21-0.171-0.3-0.272l-16.99-17.113c-1.56-1.572-1.56-4.132,0-5.704    c1.57-1.572,4.1-1.572,5.66,0l10.15,10.24V9.031c0-2.227,1.8-4.031,4-4.031c2.21,0,4,1.804,4,4.031v42.47l10.16-10.24    c1.56-1.572,4.09-1.572,5.66,0C71.375,42.834,71.375,45.394,69.815,46.966z"/>
	</g>
</g>
</svg>